<svg width="25" height="14" viewBox="0 0 25 14" fill="none" xmlns="http://www.w3.org/2000/svg">
<path d="M24.0348 0.593568C23.6949 0.253776 23.2339 0.0628918 22.7533 0.0628918C22.2727 0.0628918 21.8118 0.253776 21.4719 0.593568L12.5 9.56544L3.52813 0.593566C3.18629 0.263405 2.72844 0.0807152 2.25321 0.0848445C1.77798 0.0889739 1.32338 0.279592 0.987331 0.615644C0.651279 0.951697 0.460662 1.40629 0.456533 1.88153C0.452403 2.35676 0.635093 2.8146 0.965255 3.15644L11.2186 13.4098C11.5585 13.7495 12.0194 13.9404 12.5 13.9404C12.9806 13.9404 13.4415 13.7495 13.7814 13.4098L24.0348 3.15644C24.3745 2.81655 24.5654 2.35561 24.5654 1.875C24.5654 1.39439 24.3745 0.933462 24.0348 0.593568Z" fill="#1A4B99"/>
</svg>
