<svg width="69" height="70" viewBox="0 0 69 70" fill="none" xmlns="http://www.w3.org/2000/svg">
<path d="M54.92 6.80517C55.7419 6.28809 56.6902 5.99261 57.7288 5.99261C60.6911 5.99261 63.0935 8.43029 63.0935 11.4404C63.0935 12.4654 62.8225 13.4164 62.3348 14.2382L62.3619 14.2567C66.5705 20.0646 69 27.2392 69 35.0046C69 54.3306 53.5472 70 34.5 70C15.4527 70 0 54.3213 0 34.9954C0 15.6694 15.4437 0 34.5 0C42.1315 0 49.2031 2.54848 54.92 6.80517Z" fill="white"/>
<path d="M59.1879 16.7877C58.6281 16.9971 57.9704 17.1336 57.3395 17.1336C54.4423 17.1336 52.0962 14.749 52.0962 11.8092C52.0962 11.1447 52.2206 10.5076 52.4339 9.92513C47.395 6.20258 41.2008 4 34.5 4C17.6504 4 4 17.8799 4 35C4 52.1201 17.6504 66 34.5 66C51.3496 66 65 52.1201 65 35C65 28.2011 62.8316 21.9028 59.1791 16.7877" fill="#FFEC00"/>
<path d="M55 12C55 10.3416 56.1154 9 57.5 9C58.8846 9 60 10.3416 60 12C60 13.6584 58.8846 15 57.5 15C56.1154 15 55 13.6584 55 12Z" fill="#E62F2E"/>
<path d="M19.4785 53.5835C19.638 53.3859 19.8127 53.2447 20.0101 53.1506C20.2152 53.0471 20.4203 53 20.6253 53C20.8304 53 21.0354 53.0471 21.2329 53.1506C21.4304 53.2447 21.6127 53.3859 21.7722 53.5835L22 53.8565L21.5519 54.4118L21.3241 54.1388C21.2253 54.0259 21.119 53.9318 20.9975 53.8753C20.8759 53.8188 20.7544 53.7906 20.6329 53.7906C20.5114 53.7906 20.3823 53.8188 20.2608 53.8753C20.1392 53.9318 20.0329 54.0259 19.9342 54.1388C19.8354 54.2518 19.7671 54.3835 19.7139 54.5341C19.6684 54.6847 19.638 54.8353 19.638 54.9859C19.638 55.1365 19.6608 55.2965 19.7139 55.4376C19.7595 55.5788 19.8354 55.72 19.9342 55.8424C20.1241 56.0776 20.3595 56.2 20.6253 56.2C20.7544 56.2 20.8835 56.1718 20.9975 56.1153C21.119 56.0588 21.2253 55.9647 21.3165 55.8518L21.5443 55.5788L21.9924 56.1435L21.7646 56.4165C21.6051 56.6141 21.4304 56.7553 21.2253 56.8588C21.0278 56.9529 20.8228 57 20.6177 57C20.4127 57 20.2076 56.9529 20.0025 56.8588C19.8051 56.7553 19.6228 56.6141 19.4709 56.4165C19.3114 56.2188 19.1975 56.0024 19.1139 55.7576C19.038 55.5129 19 55.2682 19 55.0047C19 54.7412 19.038 54.4965 19.1139 54.2518C19.1975 54.0071 19.3114 53.7906 19.4709 53.5929" fill="#E62F2E"/>
<path d="M23.9342 54.1348C23.7443 54.3712 23.6456 54.6643 23.6456 54.9953C23.6456 55.1749 23.6835 55.3546 23.7443 55.5248C23.8051 55.4492 23.8886 55.3452 24.0101 55.2033C24.1316 55.052 24.2532 54.9007 24.3823 54.74C24.519 54.5697 24.6481 54.4184 24.762 54.2671C24.8911 54.1158 24.9823 54.0024 25.0506 53.9173C24.8684 53.8038 24.6709 53.766 24.4658 53.8038C24.2608 53.8416 24.0861 53.9551 23.9342 54.1442M25.5443 55.5816L26 56.1395L25.7722 56.4137C25.6203 56.6028 25.4456 56.7541 25.2481 56.8487C25.0506 56.9433 24.8456 57 24.6253 57C24.4051 57 24.2 56.9433 24.0025 56.8487C23.8051 56.7447 23.6304 56.6028 23.4709 56.4137C23.3114 56.2151 23.1899 55.9976 23.1139 55.7518C23.038 55.5059 23 55.2506 23 54.9953C23 54.74 23.038 54.4941 23.1139 54.2482C23.1899 54.0024 23.3114 53.7849 23.4709 53.5863C23.6304 53.3877 23.8051 53.2459 24.0025 53.1513C24.2076 53.0473 24.4051 53 24.6177 53C24.8304 53 25.0279 53.0473 25.2253 53.1513C25.4304 53.2459 25.6051 53.3877 25.7646 53.5863L25.9924 53.8605L24.1924 56.0827C24.3747 56.1962 24.5722 56.234 24.7696 56.1962C24.9747 56.1489 25.157 56.0355 25.3089 55.8463L25.5367 55.5721L25.5443 55.5816Z" fill="#E62F2E"/>
<path d="M26 54.9906C26 54.717 26.0561 54.4528 26.1495 54.217C26.2617 53.9717 26.4019 53.7642 26.5794 53.5849C26.7664 53.4057 26.972 53.2641 27.2243 53.1604C27.4673 53.0566 27.7196 53 28 53C28.2804 53 28.5327 53.0566 28.7757 53.1604C29.0187 53.2641 29.2336 53.4057 29.4112 53.5849C29.5981 53.7642 29.7383 53.9811 29.8411 54.217C29.9533 54.4528 30 54.717 30 54.9906V57H29.215V54.9906C29.215 54.8208 29.1776 54.6698 29.1121 54.5283C29.0561 54.3774 28.9626 54.2547 28.8505 54.1415C28.7477 54.0283 28.6168 53.9434 28.4673 53.8868C28.3178 53.8208 28.1682 53.7925 28 53.7925C27.8318 53.7925 27.6822 53.8208 27.5327 53.8868C27.3832 53.9434 27.2617 54.0377 27.1495 54.1415C27.0467 54.2453 26.9533 54.3774 26.8879 54.5283C26.8318 54.6698 26.8037 54.8208 26.8037 54.9906V57H26.0093V54.9906H26Z" fill="#E62F2E"/>
<path d="M30.6465 53.5835C30.8586 53.3859 31.0909 53.2447 31.3535 53.1506C31.6263 53.0471 31.899 53 32.1717 53C32.4444 53 32.7172 53.0471 32.9798 53.1506C33.2525 53.2447 33.4949 53.3859 33.697 53.5835L34 53.8565L33.404 54.4118L33.101 54.1388C32.9697 54.0259 32.8283 53.9318 32.6667 53.8753C32.5051 53.8188 32.3434 53.7906 32.1717 53.7906C32 53.7906 31.8384 53.8188 31.6768 53.8753C31.5152 53.9318 31.3737 54.0259 31.2424 54.1388C31.1212 54.2518 31.0202 54.3835 30.9596 54.5341C30.899 54.6847 30.8586 54.8353 30.8586 54.9859C30.8586 55.1365 30.8889 55.2965 30.9596 55.4376C31.0202 55.5788 31.1212 55.72 31.2424 55.8424C31.4949 56.0776 31.8081 56.2 32.1616 56.2C32.3333 56.2 32.5051 56.1718 32.6667 56.1153C32.8182 56.0588 32.9697 55.9647 33.0909 55.8518L33.3939 55.5788L33.9899 56.1435L33.6869 56.4165C33.4747 56.6141 33.2323 56.7553 32.9697 56.8588C32.7071 56.9529 32.4444 57 32.1616 57C31.8788 57 31.6162 56.9529 31.3434 56.8588C31.0808 56.7553 30.8485 56.6141 30.6364 56.4165C30.4242 56.2188 30.2727 56.0024 30.1616 55.7576C30.0606 55.5129 30 55.2682 30 55.0047C30 54.7412 30.0505 54.4965 30.1616 54.2518C30.2626 54.0071 30.4242 53.7906 30.6364 53.5929" fill="#E62F2E"/>
<path d="M34.785 54.9953C34.785 55.1655 34.8131 55.3168 34.8785 55.4681C34.9439 55.6099 35.028 55.7518 35.1308 55.8558C35.243 55.9598 35.3738 56.0449 35.5234 56.1206C35.6729 56.1773 35.8318 56.2057 36 56.2057C36.1682 56.2057 36.3178 56.1773 36.4673 56.1206C36.6168 56.0544 36.7383 55.9693 36.8505 55.8558C36.9626 55.7423 37.0467 55.6099 37.1121 55.4681C37.1776 55.3168 37.2056 55.1655 37.2056 54.9953C37.2056 54.8251 37.1776 54.6738 37.1121 54.5319C37.0467 54.3806 36.9626 54.2577 36.8505 54.1442C36.7477 54.0307 36.6168 53.9456 36.4673 53.8889C36.3178 53.8227 36.1589 53.7943 36 53.7943C35.8411 53.7943 35.6729 53.8322 35.5234 53.8889C35.3832 53.9456 35.243 54.0307 35.1308 54.1442C35.028 54.2482 34.9346 54.3806 34.8785 54.5319C34.8131 54.6738 34.785 54.8345 34.785 54.9953ZM34 54.9953C34 54.721 34.0467 54.4563 34.1495 54.2199C34.2523 53.974 34.4019 53.766 34.5794 53.5863C34.7664 53.4066 34.972 53.2553 35.215 53.1608C35.4579 53.0567 35.7196 53 35.9907 53C36.2617 53 36.5327 53.0567 36.7664 53.1608C37.0093 53.2553 37.2243 53.4066 37.4112 53.5863C37.5981 53.766 37.7383 53.974 37.8411 54.2199C37.9439 54.4563 38 54.721 38 54.9953C38 55.2695 37.9439 55.5248 37.8411 55.7707C37.7383 56.0165 37.5981 56.234 37.4112 56.4137C37.2243 56.6028 37.0093 56.7447 36.7664 56.8487C36.5327 56.9433 36.271 57 35.9907 57C35.7103 57 35.4579 56.9433 35.215 56.8487C34.972 56.7447 34.757 56.5934 34.5794 56.4137C34.4019 56.234 34.2617 56.0165 34.1495 55.7707C34.0467 55.5248 34 55.2695 34 54.9953Z" fill="#E62F2E"/>
<path d="M41.6075 53V53.5986H39.1963C39.0841 53.5986 38.9907 53.6271 38.9065 53.6841C38.8318 53.7411 38.7944 53.8124 38.7944 53.8979C38.7944 53.9834 38.8318 54.0546 38.9065 54.1188C38.9813 54.1758 39.0841 54.2043 39.1963 54.2043H40.7944C40.9626 54.2043 41.1122 54.2257 41.2523 54.2755C41.4019 54.3183 41.5327 54.3824 41.6355 54.4608C41.7477 54.5392 41.8318 54.639 41.8972 54.7458C41.9626 54.8527 42 54.9739 42 55.095C42 55.2162 41.9626 55.3373 41.8972 55.4513C41.8318 55.5582 41.757 55.658 41.6355 55.7435C41.5327 55.8219 41.4019 55.886 41.2523 55.9359C41.1122 55.9786 40.9533 56 40.7944 56H38.3925V55.4014H40.7944C40.9159 55.4014 41.0093 55.3729 41.0841 55.3159C41.1682 55.2518 41.1963 55.1805 41.1963 55.095C41.1963 55.0095 41.1589 54.9382 41.0841 54.8812C41.0093 54.8242 40.9065 54.7957 40.7944 54.7957H39.1963C39.028 54.7957 38.8692 54.7743 38.7196 54.7245C38.5794 54.6746 38.4579 54.6105 38.3458 54.5321C38.243 54.4466 38.1495 54.3468 38.0935 54.247C38.028 54.133 38 54.019 38 53.8907C38 53.7625 38.028 53.6485 38.0935 53.5416C38.1589 53.4347 38.243 53.3349 38.3458 53.2565C38.4579 53.1781 38.5794 53.114 38.7196 53.0713C38.8692 53.0214 39.028 53 39.1963 53H41.6075Z" fill="#E62F2E"/>
<path d="M46 53V54.9953C46 55.2695 45.9439 55.5248 45.8411 55.7707C45.7383 56.0165 45.5981 56.2246 45.4112 56.4137C45.2243 56.5934 45.0093 56.7447 44.7664 56.8487C44.5327 56.9527 44.271 57 43.9907 57C43.7103 57 43.4579 56.9527 43.215 56.8487C42.972 56.7447 42.757 56.5934 42.5794 56.4137C42.4019 56.2246 42.2617 56.0071 42.1495 55.7707C42.0467 55.5248 42 55.2695 42 54.9953V53H42.785V54.9953C42.785 55.1655 42.8131 55.3168 42.8785 55.4681C42.9439 55.6194 43.028 55.7518 43.1402 55.8652C43.2523 55.9693 43.3738 56.0638 43.5234 56.1206C43.6729 56.1773 43.8224 56.2057 43.9907 56.2057C44.1589 56.2057 44.3084 56.1773 44.4579 56.1206C44.6075 56.0544 44.7383 55.9693 44.8411 55.8652C44.9533 55.7518 45.0374 55.6194 45.1028 55.4681C45.1682 55.3168 45.2056 55.1655 45.2056 54.9953V53H45.9907H46Z" fill="#E62F2E"/>
<path d="M48 56.1501C48.1682 56.1501 48.3178 56.1197 48.4673 56.059C48.6168 55.9882 48.7383 55.8971 48.8411 55.7858C48.9533 55.6644 49.0467 55.5228 49.1028 55.3609C49.1682 55.199 49.2056 55.0371 49.2056 54.855V53.57H48.0093C47.8411 53.57 47.6822 53.6105 47.5421 53.6813C47.3925 53.742 47.2617 53.8331 47.1495 53.9545C47.0467 54.0658 46.9626 54.2074 46.8972 54.3693C46.8411 54.5211 46.8037 54.6931 46.8037 54.8651C46.8037 55.0371 46.8318 55.2091 46.8972 55.371C46.9626 55.5329 47.0467 55.6745 47.1495 55.796C47.2617 55.9072 47.3925 56.0084 47.5421 56.0691C47.6822 56.1298 47.8411 56.1602 48.0093 56.1602M50 51V54.855C50 55.1484 49.9439 55.4317 49.8411 55.6847C49.7383 55.9477 49.5981 56.1703 49.4112 56.3727C49.2336 56.5649 49.028 56.7268 48.785 56.8381C48.5421 56.9494 48.2804 57 48.0093 57C47.7383 57 47.4766 56.9494 47.2336 56.8381C46.9907 56.7268 46.7757 56.5649 46.5888 56.3727C46.4112 56.1703 46.2617 55.9376 46.1495 55.6847C46.0467 55.4216 46 55.1484 46 54.855C46 54.5615 46.0467 54.2782 46.1495 54.0253C46.2617 53.7622 46.4019 53.5396 46.5888 53.3474C46.7757 53.1551 46.9907 52.9933 47.2336 52.8921C47.4766 52.7808 47.7383 52.7201 48.0093 52.7201H49.2056V51H50Z" fill="#E62F2E"/>
<path d="M41.367 29.88L41.8991 27.0033C41.8991 27.0033 38.3028 26.7868 37.7156 29.88H36.4404L36 31.9H37.422L36.3486 37.8159C35.9266 41.1345 39.6147 40.9992 39.6147 40.9992C43.5229 40.9992 43.211 38.2578 43.211 38.2578C43.211 38.2578 39.5321 40.0704 40.0826 36.8329L41 31.9H42.156C42.156 31.9 43.4128 31.9 43.6422 31.1696L44 29.88H41.3853H41.367Z" fill="#E62F2E"/>
<path d="M58.3215 31.1043C57.3875 30.9337 56.2836 32.0616 55.8251 34.5735C55.4345 36.7441 55.3581 38.7251 56.6742 38.9147C57.863 39.0853 58.763 37.6161 59.1621 35.436C59.6206 33 59.6206 31.3412 58.3215 31.1043ZM62.6944 36.0332C61.9472 39.3507 59.714 41 56.5129 41C53.9401 41 51.0785 39.2275 52.2843 33.9573C53.0315 30.6967 55.1798 29 58.4658 29C61.4377 29 63.8662 30.8673 62.7029 36.0427" fill="#E62F2E"/>
<path d="M31.6433 31.1643C29.5582 30.9771 28.9862 34.1503 28.9862 34.1503C28.9862 34.1503 32.1508 34.4592 32.6398 32.7556C32.6398 32.7556 33.1934 31.3048 31.6433 31.1643ZM28.8386 36.2471C28.8386 36.2471 28.2389 40.2066 35.2416 37.9694C35.2416 37.9694 35.463 40.9741 31.2189 40.9741C31.2189 40.9741 24.207 41.7511 25.0743 34.7869C25.0743 34.7869 25.8124 29.0021 31.6987 29.0021C31.6987 29.0021 35.9981 28.8055 35.9981 32.2408C35.9981 32.2408 36.3118 36.4437 28.8386 36.2471Z" fill="#E62F2E"/>
<path d="M48.8466 31.5463C50.624 28.4575 53 29.0445 53 29.0445L52.2201 32.4856C48.7831 31.754 48.239 35.3848 48.239 35.3848L47.305 40H45.5457C43.4236 40 44.1038 37.8595 44.1038 37.8595L45.7633 29.2252H47.84C47.84 29.2252 49.3817 29.18 49.0189 30.5619L48.8557 31.5463H48.8466Z" fill="#E62F2E"/>
<path d="M7.31984 39.9964C7.31984 39.9964 8.95645 40.1433 9.51958 38.5614L13.2151 30.1764L12.3528 38.1897C12.3528 38.1897 11.9305 39.9964 13.6287 39.9964H15.3357C16.4004 39.9964 16.8403 39.0196 16.8403 39.0196L21.4421 30.5913L20.0695 38.4404C19.7352 40.1001 21.4421 39.9877 21.4421 39.9877H23.7035L26 27.0039H22.2341C20.7206 27.0039 20.3335 27.8078 20.3335 27.8078L16.3652 34.853L16.9987 28.508C17.1923 26.8483 15.2829 27.0039 15.2829 27.0039H11.8337L6 39.9877H7.31104L7.31984 39.9964Z" fill="#E62F2E"/>
</svg>
