<svg width="70" height="70" viewBox="0 0 70 70" fill="none" xmlns="http://www.w3.org/2000/svg">
<path d="M0.578125 35C0.578125 15.6645 16.0334 0 35.0827 0C54.132 0 69.5781 15.6737 69.5781 35C69.5781 54.3263 54.132 70 35.0827 70C16.0334 70 0.578125 54.3263 0.578125 35ZM5.72683 35C5.72683 51.4412 18.8684 64.7754 35.0736 64.7754C51.2787 64.7754 64.4294 51.4412 64.4294 35C64.4294 18.5588 51.297 5.22457 35.0827 5.22457C18.8684 5.22457 5.72683 18.5495 5.72683 35Z" fill="white"/>
<path fill-rule="evenodd" clip-rule="evenodd" d="M35.0919 66.5601C52.2848 66.5601 66.3134 52.3844 66.3134 34.9908C66.3134 17.5971 52.2848 3.43066 35.0919 3.43066C17.8991 3.43066 3.86133 17.6156 3.86133 35C3.86133 52.3844 17.89 66.5694 35.0828 66.5694L35.0919 66.5601Z" fill="#CE0E2D"/>
<path d="M18.2281 51.2101C18.4384 50.9974 18.6762 50.8402 18.9322 50.7292C19.1883 50.6275 19.4535 50.572 19.7279 50.572C20.0022 50.572 20.2674 50.6275 20.5235 50.7292C20.7887 50.8402 21.0173 50.9974 21.2277 51.2101L21.5203 51.506L20.935 52.1163L20.6332 51.8204C20.5052 51.6909 20.368 51.5984 20.2034 51.5337C20.0388 51.469 19.8833 51.4412 19.7187 51.4412C19.5541 51.4412 19.3895 51.469 19.234 51.5337C19.0786 51.5984 18.9414 51.6909 18.8134 51.8204C18.6853 51.9406 18.5939 52.0793 18.5299 52.2365C18.4658 52.3937 18.4293 52.5601 18.4293 52.7266C18.4293 52.893 18.4658 53.0502 18.5299 53.2167C18.5939 53.3739 18.6853 53.5218 18.8134 53.642C19.0603 53.901 19.3621 54.0304 19.7187 54.0304C19.8925 54.0304 20.0571 54.0027 20.2034 53.9287C20.368 53.864 20.5052 53.7715 20.6241 53.642L20.9259 53.3461L21.5112 53.9472L21.2185 54.2523C21.0173 54.465 20.7796 54.6222 20.5144 54.7239C20.2583 54.8257 19.9931 54.8811 19.7187 54.8811C19.4444 54.8811 19.1792 54.8257 18.9231 54.7239C18.6579 54.613 18.4293 54.4558 18.2189 54.2523C18.0177 54.0397 17.8623 53.8085 17.7617 53.5403C17.6611 53.2814 17.6062 53.0132 17.6062 52.7358C17.6062 52.4584 17.6611 52.1903 17.7617 51.9221C17.8623 51.6632 18.0177 51.4227 18.2189 51.2193L18.2281 51.2101Z" fill="white"/>
<path d="M25.1694 53.3554L25.7639 53.9565L25.4712 54.2524C25.27 54.4558 25.0414 54.613 24.7853 54.724C24.5293 54.835 24.2549 54.8904 23.9714 54.8904C23.6879 54.8904 23.4136 54.835 23.1575 54.724C22.9014 54.613 22.6728 54.4558 22.4716 54.2524C22.2704 54.0397 22.115 53.8085 22.0144 53.5404C21.9138 53.2722 21.8589 53.004 21.8589 52.7359C21.8589 52.4677 21.9138 52.1903 22.0144 51.9314C22.115 51.6725 22.2704 51.4321 22.4716 51.2286C22.6819 51.0159 22.9106 50.8587 23.1758 50.7478C23.4318 50.6461 23.6971 50.5906 23.9714 50.5906C24.2458 50.5906 24.511 50.6461 24.767 50.7478C25.0231 50.8587 25.2609 51.0159 25.4621 51.2286L25.7547 51.5245L23.4044 53.901C23.6422 54.0212 23.8983 54.0582 24.1635 54.0212C24.4287 53.975 24.6664 53.8548 24.8676 53.6513L25.1603 53.3554H25.1694ZM23.066 51.8204C22.8191 52.0793 22.6911 52.3845 22.6911 52.7359C22.6911 52.9393 22.7368 53.1243 22.8191 53.3C22.8923 53.226 23.0112 53.1058 23.1666 52.9578C23.3221 52.8006 23.4776 52.6342 23.6605 52.4585C23.8342 52.2828 23.9988 52.1163 24.1543 51.9591C24.3189 51.8019 24.4378 51.6725 24.5293 51.5893C24.2915 51.4598 24.0354 51.4228 23.7702 51.4598C23.4959 51.4968 23.2672 51.617 23.066 51.8204Z" fill="white"/>
<path d="M26.2118 51.8851C26.3216 51.6262 26.4771 51.4043 26.66 51.2101C26.852 51.0159 27.0806 50.8587 27.3367 50.7477C27.5928 50.6368 27.8671 50.5813 28.1598 50.5813C28.4524 50.5813 28.7268 50.6368 28.9828 50.7477C29.2389 50.8587 29.4584 51.0159 29.6504 51.2101C29.8516 51.4043 29.9979 51.6262 30.1077 51.8851C30.2174 52.144 30.2723 52.4307 30.2723 52.7266V54.8812H29.4309V52.7266C29.4309 52.5509 29.3943 52.3845 29.3303 52.2273C29.2663 52.0701 29.1749 51.9314 29.056 51.8112C28.9371 51.6909 28.8091 51.5985 28.6444 51.5337C28.4981 51.469 28.3244 51.432 28.1506 51.432C27.9769 51.432 27.8122 51.469 27.6568 51.5337C27.5013 51.5985 27.3641 51.6909 27.2544 51.8112C27.1446 51.9314 27.0532 52.0701 26.98 52.2273C26.916 52.3845 26.8794 52.5509 26.8794 52.7266V54.8812H26.0381V52.7266C26.0381 52.4307 26.093 52.1533 26.2027 51.8851H26.2118Z" fill="white"/>
<path d="M31.1868 51.2101C31.3972 50.9974 31.6258 50.8402 31.891 50.7292C32.1562 50.6275 32.4214 50.572 32.6958 50.572C32.9701 50.572 33.2262 50.6275 33.4914 50.7292C33.7475 50.8402 33.9852 50.9974 34.1956 51.2101L34.4882 51.506L33.9029 52.1163L33.6011 51.8204C33.4731 51.6909 33.3359 51.5984 33.1805 51.5337C33.025 51.469 32.8604 51.4412 32.7049 51.4412C32.5495 51.4412 32.3757 51.469 32.2202 51.5337C32.0648 51.5984 31.9276 51.6909 31.7904 51.8204C31.6624 51.9406 31.5709 52.0793 31.5161 52.2365C31.452 52.3937 31.4155 52.5601 31.4155 52.7266C31.4155 52.893 31.452 53.0502 31.5161 53.2167C31.5709 53.3739 31.6624 53.5218 31.7904 53.642C32.0465 53.901 32.3483 54.0304 32.7049 54.0304C32.8695 54.0304 33.0341 54.0027 33.1896 53.9287C33.3451 53.864 33.4823 53.7715 33.6011 53.642L33.9029 53.3461L34.4882 53.9472L34.1956 54.2523C33.9852 54.465 33.7566 54.6222 33.4914 54.7239C33.2353 54.8257 32.961 54.8811 32.6958 54.8811C32.4306 54.8811 32.1562 54.8257 31.891 54.7239C31.6258 54.613 31.3972 54.4558 31.1868 54.2523C30.9856 54.0397 30.8302 53.8085 30.7296 53.5403C30.629 53.2814 30.5833 53.0132 30.5833 52.7358C30.5833 52.4584 30.6381 52.1903 30.7296 51.9221C30.8302 51.6632 30.9856 51.4227 31.1868 51.2193V51.2101Z" fill="white"/>
<path d="M34.8081 52.7359C34.8081 52.44 34.863 52.1533 34.9727 51.8944C35.0825 51.6355 35.2288 51.4136 35.4208 51.2194C35.6129 51.0252 35.8324 50.868 36.0884 50.757C36.3445 50.6461 36.6188 50.5906 36.9115 50.5906C37.2041 50.5906 37.4785 50.6461 37.7345 50.757C37.9906 50.868 38.2101 51.0252 38.4113 51.2194C38.6033 51.4136 38.7588 51.6355 38.8685 51.8944C38.9783 52.1533 39.0332 52.4307 39.0332 52.7359C39.0332 53.041 38.9783 53.3092 38.8685 53.5681C38.7588 53.827 38.6125 54.0582 38.4113 54.2616C38.2192 54.4651 37.9906 54.613 37.7345 54.724C37.4785 54.835 37.2041 54.8904 36.9115 54.8904C36.6188 54.8904 36.3445 54.835 36.0884 54.724C35.8324 54.613 35.6129 54.4558 35.4208 54.2616C35.2288 54.0675 35.0733 53.8363 34.9727 53.5681C34.863 53.3092 34.8081 53.0318 34.8081 52.7359ZM35.6403 52.7359C35.6403 52.9116 35.6677 53.0873 35.7409 53.2445C35.8141 53.4017 35.8964 53.5404 36.0153 53.6606C36.1341 53.7808 36.2713 53.8733 36.4268 53.938C36.5823 54.0027 36.756 54.0397 36.9298 54.0397C37.1035 54.0397 37.2681 54.0027 37.4236 53.938C37.5791 53.8733 37.7163 53.7808 37.8351 53.6606C37.954 53.5404 38.0363 53.4017 38.1095 53.2445C38.1735 53.0873 38.2009 52.9116 38.2009 52.7359C38.2009 52.5602 38.1644 52.3937 38.1095 52.2365C38.0363 52.0793 37.954 51.9406 37.8351 51.8297C37.7163 51.7095 37.5791 51.617 37.4236 51.5523C37.2681 51.4875 37.0944 51.4505 36.9298 51.4505C36.756 51.4505 36.5823 51.4783 36.4268 51.5523C36.2713 51.617 36.1341 51.7095 36.0153 51.8297C35.9055 51.9499 35.8141 52.0793 35.7409 52.2365C35.6769 52.3937 35.6403 52.5602 35.6403 52.7359Z" fill="white"/>
<path d="M43.1302 50.572V51.4227H40.5787C40.4506 51.4227 40.3592 51.469 40.2769 51.543C40.1946 51.6262 40.158 51.7279 40.158 51.8574C40.158 51.9868 40.2037 52.0793 40.2769 52.1625C40.3592 52.2457 40.4598 52.292 40.5787 52.292H42.2705C42.4443 52.292 42.6089 52.329 42.7644 52.3937C42.9198 52.4677 43.0479 52.5509 43.1667 52.6711C43.2856 52.7913 43.3679 52.9208 43.4411 53.078C43.5051 53.2352 43.5417 53.4016 43.5417 53.5773C43.5417 53.753 43.5051 53.9194 43.4411 54.0766C43.3679 54.2338 43.2856 54.3725 43.1667 54.4835C43.0479 54.6037 42.9107 54.6962 42.7644 54.7609C42.6089 54.8349 42.4443 54.8626 42.2705 54.8626H39.7282V54.0119H42.2705C42.3986 54.0119 42.4992 53.9657 42.5815 53.8825C42.6638 53.7992 42.7003 53.6975 42.7003 53.5681C42.7003 53.4386 42.6546 53.3461 42.5815 53.2629C42.4992 53.1797 42.3986 53.1427 42.2705 53.1427H40.5787C40.4049 53.1427 40.2312 53.1057 40.0848 53.041C39.9294 52.9762 39.8013 52.8838 39.6825 52.7636C39.5636 52.6434 39.4813 52.5047 39.4172 52.3567C39.3532 52.1995 39.3167 52.0331 39.3167 51.8574C39.3167 51.6817 39.3532 51.506 39.4172 51.3488C39.4813 51.1916 39.5636 51.0621 39.6825 50.9419C39.7922 50.8309 39.9294 50.7385 40.0848 50.6737C40.2403 50.609 40.4049 50.572 40.5787 50.572H43.1302Z" fill="white"/>
<path d="M48.0594 50.572V52.7173C48.0594 53.0132 48.0045 53.2906 47.8948 53.5496C47.785 53.8177 47.6296 54.0397 47.4375 54.2431C47.2363 54.4373 47.0168 54.5945 46.7608 54.7054C46.5047 54.8164 46.2304 54.8719 45.9286 54.8719C45.6451 54.8719 45.3707 54.8164 45.1147 54.7054C44.8586 54.5945 44.63 54.4373 44.4379 54.2431C44.2459 54.0489 44.0995 53.8177 43.9898 53.5496C43.8801 53.2906 43.8252 53.0132 43.8252 52.7173V50.572H44.6665V52.7173C44.6665 52.893 44.7031 53.0687 44.7671 53.2259C44.8312 53.3831 44.9226 53.5218 45.0415 53.642C45.1604 53.7622 45.2976 53.8547 45.4439 53.9194C45.5994 53.9934 45.764 54.0212 45.9377 54.0212C46.1115 54.0212 46.2852 53.9842 46.4407 53.9194C46.5962 53.8547 46.7333 53.7622 46.8522 53.642C46.9711 53.5218 47.0626 53.3831 47.1266 53.2259C47.1906 53.0687 47.2272 52.893 47.2272 52.7173V50.572H48.0685H48.0594Z" fill="white"/>
<path d="M52.5408 48.8521V52.7173C52.5408 53.0132 52.486 53.2906 52.3762 53.5495C52.2665 53.8177 52.111 54.0396 51.919 54.2431C51.7269 54.4373 51.5074 54.5945 51.2422 54.7054C50.9862 54.8164 50.7118 54.8719 50.4283 54.8719C50.1448 54.8719 49.8705 54.8164 49.6053 54.7054C49.3492 54.5945 49.1206 54.4373 48.9285 54.2431C48.7365 54.0489 48.581 53.8177 48.4713 53.5495C48.3615 53.2906 48.3066 53.0132 48.3066 52.7173C48.3066 52.4214 48.3615 52.1347 48.4713 51.8851C48.581 51.6262 48.7365 51.4042 48.9285 51.21C49.1206 51.0159 49.3492 50.8587 49.6053 50.7477C49.8705 50.6367 50.1357 50.5812 50.4283 50.5812H51.6995V48.8613H52.5317L52.5408 48.8521ZM50.4283 54.0211C50.6021 54.0211 50.7667 53.9842 50.9221 53.9194C51.0776 53.8547 51.2056 53.7622 51.3245 53.642C51.4343 53.5218 51.5257 53.3831 51.5989 53.2259C51.6629 53.0687 51.6995 52.893 51.6995 52.7173V51.432H50.4283C50.2546 51.432 50.0899 51.469 49.9253 51.5337C49.7699 51.6077 49.6327 51.7001 49.5138 51.8111C49.3949 51.9313 49.3035 52.07 49.2394 52.2272C49.1754 52.3844 49.1388 52.5509 49.1388 52.7266C49.1388 52.9023 49.1754 53.0779 49.2394 53.2351C49.3035 53.3923 49.3949 53.531 49.5138 53.6513C49.6327 53.7715 49.7699 53.8639 49.9253 53.9287C50.0808 54.0026 50.2454 54.0304 50.4283 54.0304V54.0211Z" fill="white"/>
<path fill-rule="evenodd" clip-rule="evenodd" d="M62.2345 33.761H58.8691V37.5338C57.726 37.617 56.6194 36.9327 55.961 35.6844C55.4854 34.7874 55.5677 32.9657 56.6652 31.9393C57.6803 30.9961 59.5459 31.0886 60.6159 31.3845L61.2834 29.868C60.3872 29.4334 59.1435 29.3779 57.9821 29.3779H56.7658C50.2727 29.3779 50.6294 39.115 57.1499 39.1797C59.6648 39.2075 61.0914 38.8283 62.2254 38.2643V33.761H62.2345ZM40.3502 38.7821V33.4281C40.3502 31.0054 42.3622 29.4519 44.8222 29.4519H46.5232C48.9833 29.4519 50.986 31.0054 50.986 33.4281V38.7821H47.4834V32.7623C47.4834 31.7914 46.6787 30.9961 45.691 30.9961C44.7033 30.9961 43.8071 31.7914 43.8071 32.7623V38.7821H40.3594H40.3502ZM23.1025 25.79C24.3463 25.79 25.3614 26.8072 25.3614 28.0648C25.3614 29.3224 24.3554 30.3396 23.1025 30.3396C21.8497 30.3396 20.8528 29.3224 20.8528 28.0648C20.8528 26.8072 21.8588 25.79 23.1025 25.79ZM7.58325 26.0397L12.9332 37.7095C13.4453 38.6157 14.3964 39.1705 15.4298 39.1705C16.4632 39.1705 17.4051 38.6157 17.9264 37.7187L18.9141 36.0265L19.6914 37.728H19.7188H19.7097C20.231 38.6527 21.2003 39.2167 22.2337 39.2167C23.2671 39.2167 24.2365 38.6527 24.7669 37.7464H24.7487L24.7669 37.7372L30.3912 26.0582H27.5379L23.3037 34.8429C23.1666 35.1388 22.8099 35.1388 22.6727 34.8244L18.6489 26.049H14.3324L17.6155 33.2062L16.7375 34.7134C16.4998 35.1295 16.0882 35.1573 15.887 34.7134L11.9089 26.0397H7.5924H7.58325ZM33.656 30.9591C34.6986 30.9591 35.5491 32.4109 35.5491 34.2048C35.5491 35.9988 34.6986 37.4598 33.656 37.4598C32.6135 37.4598 31.763 36.008 31.763 34.2048C31.763 32.4017 32.6043 30.9591 33.656 30.9591ZM39.1614 34.7966H39.1431C38.9328 37.1361 36.8111 38.8838 34.2596 38.9948C33.8572 39.0133 33.4457 39.0133 33.0524 38.9948C30.4918 38.8838 28.3793 37.1361 28.1689 34.7966H28.1506V33.5668H28.1689C28.3793 31.2273 30.5009 29.4796 33.0524 29.3686C33.4365 29.3501 33.8389 29.3501 34.2596 29.3686C36.8111 29.4796 38.9328 31.2273 39.1431 33.5668H39.1614V34.7966Z" fill="white"/>
<path d="M52.541 10.6619C52.541 7.49941 55.0651 4.93799 58.1836 4.93799C61.302 4.93799 63.817 7.49941 63.817 10.6619C63.817 13.8244 61.2929 16.3858 58.1836 16.3858C55.0742 16.3858 52.541 13.8244 52.541 10.6619Z" fill="white"/>
<path d="M55.1382 10.6618C55.1382 8.96033 56.5008 7.58252 58.1835 7.58252C59.8662 7.58252 61.2197 8.96033 61.2197 10.6618C61.2197 12.3632 59.8662 13.7503 58.1835 13.7503C56.5008 13.7503 55.1382 12.3632 55.1382 10.6618Z" fill="#CE0E2D"/>
</svg>
