<svg width="166" height="51" viewBox="0 0 166 51" fill="none" xmlns="http://www.w3.org/2000/svg">
<g clip-path="url(#clip0_400_172)">
<path d="M11.0568 42.9142C10.3905 42.5516 9.74768 42.0819 9.04594 41.4219C8.19088 40.6609 7.45965 39.7632 6.85816 38.7703H6.24487V45.2924H12.8023V43.7763C12.2303 43.5504 11.676 43.2829 11.1512 42.9618L11.0568 42.9083V42.9142Z" fill="#F49523"/>
<path d="M6.581 38.3066C6.45716 38.0747 6.35692 37.8428 6.24487 37.611V38.7703H6.85816C6.76381 38.6157 6.66946 38.4671 6.581 38.3066Z" fill="#F49523"/>
<path d="M4.99467 26.2849V25.7201H0.0117188V26.3087C0.0176157 27.8902 0.0176157 30.1732 0.100173 32.2482H5.08312C4.99467 30.2089 4.99467 27.801 4.99467 26.2849Z" fill="#DAA8E2"/>
<path d="M5.52556 35.8392C5.50787 35.7619 5.49018 35.6846 5.46659 35.6073C5.44301 35.5003 5.41352 35.3933 5.38404 35.2803C5.37224 35.2327 5.35455 35.1792 5.34276 35.1376L5.21892 34.3528C5.15405 33.7523 5.11278 33.021 5.07739 32.2422H0.100342C0.141621 33.3005 0.20059 34.3112 0.300839 35.1317L0.312633 35.2268C0.330324 35.5003 0.477749 36.1662 0.507233 36.2791L1.04386 38.1044C1.12642 38.3244 1.22077 38.5444 1.31512 38.7643H6.25089V37.605C5.97373 37.0223 5.72606 36.4337 5.53146 35.8332" fill="#E52629"/>
<path d="M12.8022 43.7763V45.2924H17.1011V44.6206C15.621 44.6087 14.1644 44.3174 12.8022 43.7704" fill="#8EC045"/>
<path d="M0.011794 25.72H4.98885L4.97705 24.5072L5.01243 19.2395L6.2449 19.2454V19.1979H0.0353819L0 24.519L0.011794 25.72Z" fill="#A05CBF"/>
<path d="M5.87939 45.2983C6.00323 45.4113 6.12117 45.5183 6.24501 45.6194V45.2983H5.87939Z" fill="#8EC045"/>
<path d="M12.8023 49.0559C14.1881 49.4305 15.621 49.6327 17.0658 49.6386L17.0953 45.2925H12.7964V49.0559H12.8023Z" fill="#2C8939"/>
<path d="M12.8023 19.1979V14.287L4.98877 14.2275V19.1979H12.8023Z" fill="#64328A"/>
<path d="M6.24485 38.7703H1.30908C1.57445 39.4302 1.8693 40.0783 2.21722 40.7144C3.14304 42.4148 4.33423 43.919 5.70823 45.1378C5.7672 45.1913 5.82617 45.2389 5.87924 45.2924H6.24485V38.7703Z" fill="#F9B041"/>
<path d="M6.24487 19.1979V19.2454L12.8023 19.3049V19.1979H6.24487Z" fill="#64328A"/>
<path d="M17.3311 19.1979L17.3665 14.3227L12.8022 14.287V19.1979H17.3311Z" fill="#DB1F5D"/>
<path d="M6.24491 45.2983V45.6194C7.02331 46.2912 7.81351 46.8501 8.64498 47.3079C9.94232 48.0808 11.3458 48.6694 12.7965 49.0618V45.2983H6.23901H6.24491Z" fill="#48AE4D"/>
<path d="M12.8022 19.3049L17.3252 19.3406L17.3311 19.1979H12.8022V19.3049Z" fill="#DB1F5D"/>
<path d="M34.5209 38.4492C34.9219 38.2352 35.3052 37.9498 35.7238 37.5574C36.2369 37.0996 36.6733 36.5645 37.033 35.97H37.3986V39.8821H33.4712V38.9724C33.8132 38.8357 34.1434 38.6751 34.4619 38.4849L34.515 38.4552L34.5209 38.4492Z" fill="#F49523"/>
<path d="M37.2039 35.6906C37.2806 35.5538 37.3396 35.4112 37.4044 35.2744V35.97H37.0388C37.0919 35.8749 37.1509 35.7857 37.2039 35.6906Z" fill="#F49523"/>
<path d="M38.1534 28.4846V28.1458H41.1373V28.4965C41.1373 29.4478 41.1373 30.8153 41.0842 32.0519H38.1003C38.1534 30.8271 38.1534 29.3884 38.1534 28.4787" fill="#225D38"/>
<path d="M37.8351 34.2101C37.8469 34.1625 37.8586 34.115 37.8704 34.0674C37.8881 34.002 37.8999 33.9366 37.9176 33.8712C37.9235 33.8415 37.9353 33.8118 37.9412 33.788L38.0179 33.3183C38.0532 32.9556 38.0827 32.5216 38.1004 32.0579H41.0843C40.9899 34.5371 40.412 35.8332 40.359 35.97H37.3987V35.2743C37.5638 34.9236 37.7171 34.5728 37.8292 34.2101" fill="#005640"/>
<path d="M33.4771 38.9664V39.8761H30.9001V39.4777C31.7847 39.4718 32.6633 39.2934 33.4771 38.9724" fill="#8EC045"/>
<path d="M41.1373 28.1458H38.1594L38.1653 27.4204L38.1417 24.2634L37.4045 24.2694V24.2396H41.1255L41.1491 27.4264L41.1373 28.1458Z" fill="#009D4F"/>
<path d="M37.6227 39.8761C37.552 39.9415 37.4753 40.0069 37.4045 40.0723V39.8761H37.6227Z" fill="#8EC045"/>
<path d="M41.1078 21.2312L38.1003 21.2609V24.2634H41.1255L41.1078 21.2312Z" fill="#4D266C"/>
<path d="M33.4771 42.1294C32.6457 42.3553 31.7906 42.4743 30.9178 42.4802L30.9001 39.8761H33.4771V42.1294Z" fill="#2C8939"/>
<path d="M37.4045 35.9641H40.3648C40.2056 36.3565 40.0287 36.7489 39.8223 37.1294C39.268 38.152 38.5545 39.0498 37.7289 39.7811C37.6935 39.8108 37.6581 39.8405 37.6227 39.8702H37.4045V35.9581V35.9641Z" fill="#F9B041"/>
<path d="M33.4771 21.2967V24.2397V24.2991L38.1003 24.2694V24.2397V21.261L33.4771 21.2967Z" fill="#64328A"/>
<path d="M37.4044 39.8761V40.0723C36.9386 40.4706 36.4668 40.8095 35.9656 41.083C35.1872 41.5468 34.3498 41.8976 33.4771 42.1354V39.882H37.4044V39.8761Z" fill="#48AE4D"/>
<path d="M30.741 21.3145L30.7646 24.2396V24.3229L33.4772 24.2991V24.2396V21.2966L30.741 21.3145Z" fill="#DB1F5D"/>
<path d="M25.9999 19.2752C26.0883 18.8591 26.2004 18.3894 26.336 18.0148L26.3891 17.8543C26.6721 16.8792 27.1557 15.8031 27.8928 14.4832L28.1346 14.1205C28.3705 13.7103 28.6299 13.312 28.8953 12.9196H25.5576V20.9756C25.6579 20.5 25.7876 19.9887 25.9527 19.4655L25.9999 19.2752Z" fill="#0E62AD"/>
<path d="M25.5575 45.6789L25.357 45.6849L25.2921 36.2197H20.3328L20.3799 42.5754L20.4212 47.849V47.8728H25.5575V45.6789Z" fill="#F9B041"/>
<path d="M25.5576 9.03113C24.9974 9.76836 24.4666 10.5234 23.9949 11.3261L23.7413 11.7006C23.4995 12.1228 23.2754 12.533 23.075 12.9254H25.5576V9.03113Z" fill="#0E4D85"/>
<path d="M25.2215 24.6617C25.2215 24.6617 25.2215 24.6022 25.2215 24.5725H20.2385L20.327 36.2256H25.2922L25.2156 24.6676L25.2215 24.6617Z" fill="#285A96"/>
<path d="M25.2331 24.3289C25.2449 24.0613 25.2566 23.764 25.2861 23.5857L25.3333 23.3122L25.3215 23.0328C25.2979 22.5036 25.3805 21.7902 25.5515 20.9756V12.9196H23.0689C22.4202 14.1681 21.9543 15.2918 21.6359 16.362C21.4295 16.9506 21.2762 17.557 21.1582 18.0921C20.7573 19.4239 20.315 21.3026 20.3386 23.003C20.2855 23.4014 20.2678 23.7878 20.256 24.1148L20.2324 24.531V24.5726H25.2154C25.2154 24.4953 25.2213 24.4121 25.2272 24.3289" fill="#212C56"/>
<path d="M20.4211 47.8728L20.4683 50.7326H23.2576L25.3569 50.6969V47.8728H20.4211Z" fill="#EB5C2C"/>
<path d="M57.6252 41.3625C56.9117 41.9333 56.1923 42.4208 55.4552 42.8251L55.3608 42.8786C52.4241 44.6385 49.0392 45.5838 45.5836 45.6076L41.5854 45.6195V47.8728H56.664C56.9884 47.7063 57.3009 47.5279 57.6193 47.3436V41.3566L57.6252 41.3625Z" fill="#D5DA2F"/>
<path d="M41.5913 50.6315L45.613 50.6196C49.4874 50.5898 53.2791 49.6445 56.6699 47.8668H41.5913V50.6315Z" fill="#D5DA2F"/>
<path d="M25.3569 47.8728V50.6969L26.8784 50.6791L41.5913 50.6315V47.8728H25.3569Z" fill="#F9B041"/>
<path d="M70.4395 12.9195H65.4506L65.3799 4.25696H70.3687L70.4395 12.9195Z" fill="#81708F"/>
<path d="M65.4564 13.4189L65.4269 16.2251C65.4269 18.4725 65.4269 21.6771 65.3267 24.5725H70.3037C70.404 21.6236 70.404 18.4725 70.404 16.2489L70.4334 13.4248V12.9254H65.4505V13.4189H65.4564Z" fill="#48AE4D"/>
<path d="M65.0615 28.7998L64.9199 29.6559L64.9022 29.7986C64.8905 29.8997 64.8315 30.1197 64.7843 30.298C64.7489 30.4348 64.7135 30.5775 64.6782 30.7083C64.6192 30.8688 64.5779 31.0353 64.5484 31.2017C64.1062 32.5811 63.5459 33.901 62.8324 35.2208C62.6496 35.5597 62.4432 35.8867 62.2368 36.2137H67.9097C68.3579 35.2625 68.7589 34.2934 69.095 33.3183L69.4547 32.1827L69.6257 31.6239L69.5962 31.5406C69.667 31.279 69.7437 30.9699 69.8026 30.625C69.8675 30.405 69.9383 30.1078 69.9501 29.7629L69.9737 29.5727C70.1388 28.1696 70.239 26.4097 70.298 24.5607H65.3209C65.2679 26.1303 65.1853 27.6047 65.0556 28.7879" fill="#2C8939"/>
<path d="M33.7306 2.09875C33.996 1.95606 34.4442 1.75986 34.8275 1.59338V7.21183C32.4746 8.67441 30.4401 10.6245 28.8951 12.9254H25.5515V9.03113C26.8135 7.37235 28.2641 5.88005 29.8917 4.59583C29.8917 4.59583 29.9212 4.5661 29.9801 4.51854H29.986C29.986 4.51854 30.0332 4.48287 30.0627 4.45909C31.0652 3.68023 32.1207 2.97867 33.2353 2.36035C33.4004 2.27711 33.5596 2.18793 33.7306 2.09875Z" fill="#087EAD"/>
<path d="M35.4585 1.33179C35.3524 1.37935 35.2521 1.41502 35.146 1.45664C35.2698 1.40313 35.3819 1.36151 35.4585 1.33179Z" fill="#4D266C"/>
<path d="M58.728 40.4112C58.3565 40.756 57.9909 41.0652 57.6252 41.3624V47.3495C57.7019 47.3019 57.7845 47.2663 57.8611 47.2187C59.3413 46.4101 60.733 45.3875 62.0657 44.133C64.1296 42.3018 65.8574 40.1199 67.2078 37.6406C67.4614 37.1769 67.6914 36.7012 67.9214 36.2256H62.2485C61.2814 37.7773 60.1197 39.1805 58.7339 40.4112" fill="#8FC045"/>
<path d="M0.0648853 14.1799L0.0412974 18.4606H0.0354004V19.2454H4.98886V19.1979V18.4606V14.2275L0.0648853 14.1799Z" fill="#4D266C"/>
<path d="M70.3688 0V4.25099H52.896V0.0416181C59.2706 0.0237818 65.3799 0 65.3799 0H70.3688Z" fill="#4D266C"/>
<path d="M42.4465 3.38961e-05C39.8459 -0.0296933 37.5107 0.529178 35.5883 1.2783C35.5411 1.29614 35.4999 1.31398 35.4645 1.33181C35.3583 1.37938 35.2581 1.41505 35.1519 1.45667C35.0399 1.50423 34.9396 1.54585 34.8335 1.59341V7.21186C35.8773 6.5638 36.9918 6.01088 38.1535 5.55902L38.242 5.52335C39.0911 5.15473 40.2292 4.85151 41.5914 4.59586C41.8804 4.54235 42.1693 4.48884 42.4701 4.44722H42.4878L52.8959 4.25103V0.0475974C49.0865 0.0475974 45.1886 0.041652 42.4524 3.38961e-05" fill="#212C56"/>
<path d="M26.843 45.661L25.3569 45.6788V47.8727H41.5913V45.6194L29.6735 45.661H26.843Z" fill="#EB5C2C"/>
<path d="M76.6667 37.9617C76.6667 46.6123 79.7745 50.9346 85.984 50.9346C89.0445 50.8454 92.0225 50.5779 94.9179 50.132V46.2377C91.9281 46.5885 88.9855 46.7847 86.0842 46.8323C82.9765 46.8323 81.4256 43.8774 81.4256 37.9617C81.4256 32.0459 82.9765 29.0911 86.0842 29.0911C88.9796 29.1148 91.9399 29.2991 94.9533 29.6559V25.6903C92.0343 25.2681 89.0445 25.0125 85.984 24.9174C79.7686 24.9174 76.6667 29.2635 76.6667 37.9557V37.9617Z" fill="#285A96"/>
<path d="M110.256 24.953H107.266C106.034 24.953 105.202 25.6308 104.76 26.9863L96.8699 51H101.635L103.758 45.0724H113.806L115.894 51H120.658L112.762 26.9863C112.32 25.6308 111.488 24.953 110.256 24.953ZM105.108 40.8689L108.587 30.3515H109.035L112.444 40.8689H105.108Z" fill="#285A96"/>
<path d="M127.369 46.529C126.573 45.9047 126.166 45.2804 126.166 44.6859V25.5535H121.472V43.913C121.472 44.9059 121.566 45.768 121.784 46.6003C122.185 47.6765 122.923 48.5861 123.978 49.3055C125.446 50.2984 127.257 50.8454 129.386 50.9286H139.788V47.0879H130.194C128.442 47.0879 127.693 46.7846 127.369 46.529Z" fill="#285A96"/>
<path d="M158.104 26.9863C157.662 25.6308 156.83 24.953 155.598 24.953H152.608C151.381 24.953 150.544 25.6308 150.102 26.9863L142.212 51H146.976L149.099 45.0724H159.148L161.235 51H166L158.104 26.9863ZM150.456 40.8689L153.935 30.3515H154.389L157.797 40.8689H150.462H150.456Z" fill="#285A96"/>
</g>
<defs>
<clipPath id="clip0_400_172">
<rect width="166" height="51" fill="white"/>
</clipPath>
</defs>
</svg>
