<svg width="57" height="73" viewBox="0 0 57 73" fill="none" xmlns="http://www.w3.org/2000/svg">
<g clip-path="url(#clip0_330_4173)">
<path d="M57 73H4.25536V46.4614H17.3478V32.0311C15.4619 32.3432 13.5277 32.5929 11.533 32.7926L6.4193 33.2919L0 12.8075L5.88738 10.6729C11.7506 8.5383 17.505 5.38013 23.0055 1.26077L24.6859 0H45.2132V46.4489H56.9879V72.9875L57 73ZM17.0456 59.7806H44.1977V59.6683H32.4229V13.2194H28.7962C26.6564 14.7423 24.4804 16.1404 22.2681 17.4261L30.1502 15.1792V59.6683H17.0577V59.7806H17.0456Z" fill="#1A4A9A"/>
<path d="M47.9574 61.3784H10.2999V48.7582H22.6429V21.1086C18.9678 22.1571 14.9421 22.9061 10.5659 23.3305L7.80957 14.5176C13.9025 12.2957 19.8019 9.0501 25.4838 4.78094H36.8475V48.7582H47.9453V61.3784H47.9574Z" fill="#FFE009"/>
</g>
<defs>
<clipPath id="clip0_330_4173">
<rect width="57" height="73" fill="white"/>
</clipPath>
</defs>
</svg>
