<svg width="62" height="73" viewBox="0 0 62 73" fill="none" xmlns="http://www.w3.org/2000/svg">
<g clip-path="url(#clip0_330_4178)">
<path d="M62 73H3.22366V52.2555L5.62294 50.2968C7.30859 48.9295 9.54793 47.1433 12.3286 44.9506C15.0478 42.8194 17.1272 41.1688 18.5791 39.9862C20.0433 38.8036 21.7904 37.3746 23.8329 35.6993C26.1215 33.8269 27.3149 32.6812 27.9178 32.0653C28.9022 31.0429 29.948 29.9219 31.0062 28.7146C31.9413 27.6676 32.1996 27.1132 32.2489 27.0147C32.3596 26.756 32.3842 26.6205 32.3842 26.6205C32.3842 26.448 32.3596 26.3248 32.3473 26.2509C32.1381 26.1524 31.7198 26.0785 31.2153 26.0785C28.7176 26.0785 23.8698 26.8669 15.0478 30.5994L8.8466 33.2233L0 10.1136L5.68446 7.61289C11.4797 5.06294 16.512 3.15356 20.6339 1.95866C25.0756 0.665204 29.5789 0 34.0083 0C42.0921 0 48.7486 2.42676 53.7809 7.20638C58.9117 12.0845 61.5201 18.5518 61.5201 26.448C61.5201 29.4784 60.8803 32.4595 59.6253 35.3174C58.5057 37.855 57.103 40.1956 55.4543 42.2651C54.2731 43.7433 52.8212 45.2462 51.0494 46.8107H62V73ZM37.3673 59.9546H48.9823V59.8437H41.0093C40.0865 59.8437 38.8684 59.8807 37.3673 59.9546ZM32.2858 13.0823C35.7309 13.2794 38.77 14.4867 41.1324 16.5932C43.0887 18.3424 45.4142 21.5206 45.4142 26.7314C45.4142 28.5299 45.0081 30.3777 44.2084 32.2254C43.4701 33.9131 42.3382 35.6007 40.7509 37.3993C39.5698 38.7297 38.4132 39.9738 37.3181 41.1195C37.2935 41.1441 37.2689 41.1688 37.2443 41.1934C38.3517 40.3557 39.5205 39.4565 40.714 38.4833C42.7319 36.8572 44.2576 35.3913 45.2665 34.1225C46.2262 32.9276 47.0383 31.5479 47.7027 30.0451C48.2318 28.8378 48.4902 27.6676 48.4902 26.4357C48.4902 22.1488 47.3213 19.0446 44.8113 16.6547C42.2397 14.2157 38.6962 13.0331 33.996 13.0331C33.4177 13.0331 32.8518 13.0454 32.2735 13.0823H32.2858Z" fill="#1A4A9A"/>
<path d="M52.6859 61.5314H9.57253V50.999C11.1351 49.7179 13.2145 48.0549 15.8107 46.01C18.4068 43.9651 20.3878 42.376 21.7781 41.2427C23.1685 40.1094 24.8172 38.7543 26.749 37.1652C28.6807 35.5761 30.1326 34.2704 31.1292 33.2233C32.1258 32.1885 33.1471 31.0675 34.2052 29.8849C35.2633 28.69 36.0016 27.606 36.4199 26.6328C36.8383 25.6597 37.0474 24.7358 37.0474 23.8858C37.0474 21.7547 36.383 20.0917 35.0542 18.8968C33.7253 17.7018 31.9782 17.1106 29.8127 17.1106C25.5309 17.1106 19.6618 18.6997 12.181 21.8655L8.20679 11.4317C13.4483 9.11579 17.8901 7.41582 21.5444 6.35642C25.1863 5.2847 28.816 4.755 32.4334 4.755C38.4624 4.755 43.261 6.46729 46.8537 9.87954C50.4342 13.3041 52.2306 17.8743 52.2306 23.6148C52.2306 25.635 51.8123 27.5937 50.9633 29.5154C50.1143 31.4371 49.0808 33.174 47.8504 34.7385C46.62 36.2906 44.8728 37.9906 42.6089 39.8137C40.3449 41.6369 38.2532 43.2383 36.3215 44.5687C34.3898 45.9114 31.8305 47.5868 28.6438 49.607C33.467 49.2375 36.9244 49.0527 39.0407 49.0527H52.6859V61.5068V61.5314Z" fill="#FFE009"/>
</g>
<defs>
<clipPath id="clip0_330_4178">
<rect width="62" height="73" fill="white"/>
</clipPath>
</defs>
</svg>
