<svg width="61" height="73" viewBox="0 0 61 73" fill="none" xmlns="http://www.w3.org/2000/svg">
<g clip-path="url(#clip0_330_4185)">
<path d="M32.6865 73C22.8668 73 13.6302 70.6597 5.25666 66.0279L0.323486 63.2975L8.91864 41.1745L14.6915 43.8683V28.6442L9.05859 30.6554L2.41105 8.60544L7.48417 6.27734C16.5925 2.1087 25.2226 0 33.1414 0C40.3487 0 46.4248 1.98681 51.218 5.92386C56.3961 10.1656 59.1251 16.0407 59.1251 22.9153C59.1251 27.4618 57.9705 31.4598 55.6964 34.7631C55.5914 34.9093 55.4864 35.0556 55.3815 35.2019C59.8248 39.7971 60.6762 45.1481 60.6762 48.561C60.6762 56.2035 57.8189 62.554 52.4192 66.9177C47.4277 70.9522 40.7802 73 32.6865 73ZM45.6201 43.4173C46.4015 45.2456 46.588 47.0252 46.588 48.2685C46.588 52.4981 44.6987 56.9349 39.8472 59.202C41.8298 58.6413 43.4975 57.8003 44.862 56.7033C47.2645 54.7652 48.3257 52.2543 48.3257 48.5488C48.3257 47.4396 48.3257 45.3919 45.6201 43.4173ZM38.1095 13.4323C39.1241 13.8955 40.0688 14.4562 40.9201 15.1388C43.929 17.54 45.5851 21.1114 45.5851 25.2069C45.5851 26.0601 45.5035 26.889 45.3402 27.6691C45.4568 27.5228 45.5618 27.3765 45.6667 27.2181C46.4131 26.1332 46.7747 24.7193 46.7747 22.9032C46.7747 19.9778 45.795 17.8691 43.5908 16.0651C42.0631 14.8097 40.2437 13.932 38.0979 13.4201L38.1095 13.4323Z" fill="#1A4A9A"/>
<path d="M12.7439 19.8437L9.82832 10.1535C17.7121 6.53333 24.9894 4.71716 31.6836 4.71716C37.1649 4.71716 41.6549 6.15547 45.1303 9.01989C48.6173 11.8843 50.355 15.6507 50.355 20.2947C50.355 23.3176 49.6436 25.8651 48.2091 27.9494C46.7747 30.0337 44.9204 31.533 42.6345 32.435C48.7456 34.9703 51.8011 39.017 51.8011 44.5752C51.8011 50.1334 49.9585 54.1314 46.2732 57.1177C42.5879 60.104 37.5731 61.6033 31.2404 61.6033C22.9018 61.6033 15.193 59.6409 8.10229 55.716L11.9625 45.7454C18.0153 48.5854 24.2197 49.9994 30.5523 49.9994C35.8704 49.9994 38.5177 48.0979 38.5177 44.2949C38.5177 40.2481 34.8091 38.2248 27.3802 38.2248H20.0912V27.4497H27.3802C30.9838 27.4497 33.5729 27.0718 35.1823 26.3161C36.78 25.5604 37.5847 24.2805 37.5847 22.4644C37.5847 20.4654 36.885 18.9174 35.4855 17.796C34.086 16.6746 32.1851 16.1139 29.7826 16.1139C25.3276 16.1139 19.648 17.3572 12.7323 19.8315L12.7439 19.8437Z" fill="#FFE009"/>
</g>
<defs>
<clipPath id="clip0_330_4185">
<rect width="60.3527" height="73" fill="white" transform="translate(0.323486)"/>
</clipPath>
</defs>
</svg>
