<svg width="552" height="153" viewBox="0 0 552 153" fill="none" xmlns="http://www.w3.org/2000/svg">
<g clip-path="url(#clip0_358_13479)">
<path d="M74.5647 137.387H34.8406V125.132C25.6839 122.704 16.8664 118.937 8.52361 113.876L0 108.702L15.8037 72.9825C10.1062 66.3787 7.21229 58.0274 7.21229 48.1784C7.21229 38.3294 10.9428 28.8435 17.9742 22.1262C22.496 17.8144 28.1483 14.7054 34.8406 12.8219V1.18007H74.5647V13.4573C81.0309 14.9324 88.0623 17.0656 95.6363 19.8796L105.788 23.6467L93.8276 60.9322C94.6189 61.6357 95.3876 62.3392 96.0885 63.0881C102.442 69.6919 105.675 78.3609 105.675 88.8907C105.675 99.4205 101.582 109.406 93.8502 116.509C88.7179 121.229 82.2517 124.542 74.5647 126.449V137.387ZM38.3676 35.5381C36.4458 36.3324 34.8179 37.3536 33.5292 38.5791C30.9518 41.03 29.8213 44.0028 29.8213 48.1784C29.8213 52.354 30.8614 55.8262 32.9866 58.2544C34.4336 59.911 38.458 63.1562 49.1069 66.4241C62.7853 70.7585 67.2845 72.7556 69.5002 73.8675C76.2151 77.2716 80.0587 83.0357 80.0587 89.7076C80.0587 91.5231 79.6743 97.5823 74.9942 102.257C76.3508 101.531 77.5717 100.691 78.5891 99.7609C81.6865 96.9242 83.0657 93.5656 83.0657 88.868C83.0657 82.1961 80.6465 79.6771 79.8326 78.8374C77.8656 76.795 73.4342 73.7314 63.5541 70.8266C49.3103 66.7191 44.9242 64.9036 42.7085 63.7689C36.3327 60.5464 32.6701 54.873 32.6701 48.1784C32.6701 43.2539 34.6823 38.8287 38.3676 35.5381Z" fill="#1A4A9A"/>
<path d="M217.454 126.948H124.327V81.4018H147.456V56.6431C144.133 57.1878 140.719 57.619 137.192 57.9594L128.171 58.8217L116.821 23.6694L127.199 19.993C137.554 16.3394 147.728 10.8929 157.427 3.83521L160.389 1.67932H196.631V81.4018H217.431V126.948H217.454ZM146.914 104.277H194.845V104.073H174.045V24.3502H167.646C163.87 26.96 160.027 29.3655 156.116 31.5667L170.02 27.7088V104.073H146.891V104.277H146.914Z" fill="#1A4A9A"/>
<path d="M218.358 153L199.118 128.809L207.913 121.728C209.111 120.752 210.219 119.799 211.191 118.846C210.762 118.347 210.355 117.802 209.97 117.258C206.692 112.674 205.019 107.363 205.019 101.486C205.019 94.1783 207.574 87.6879 212.389 82.718C217.273 77.6801 223.807 75.0022 231.291 75.0022C238.774 75.0022 245.58 77.9297 250.554 83.4442C255.234 88.6411 257.721 95.3584 257.721 102.825C257.721 111.335 254.736 119.935 248.858 128.355C243.364 136.184 235.948 142.856 226.791 148.144L218.381 153H218.358ZM231.268 97.6958C229.391 97.6958 228.871 98.2404 228.555 98.5581C228.08 99.0347 227.605 99.6928 227.605 101.508C227.605 102.893 227.967 103.573 228.306 104.05C228.645 104.527 228.984 104.799 229.798 105.049L234.659 106.41C234.953 105.185 235.112 104.005 235.112 102.87C235.112 100.487 234.433 99.4205 233.778 98.6943C233.28 98.1497 232.783 97.7185 231.268 97.7185V97.6958Z" fill="#1A4A9A"/>
<path d="M298.146 128.468C279.38 128.468 264.82 122.636 254.849 111.108C245.286 100.056 240.447 84.3747 240.447 64.4951C240.447 44.6155 245.286 28.7527 254.804 17.5875C264.775 5.92302 279.357 0 298.146 0C316.934 0 331.517 5.92302 341.419 17.6102C350.87 28.7527 355.686 44.5248 355.686 64.4951C355.686 84.4654 350.87 100.033 341.374 111.085C331.449 122.613 316.911 128.468 298.146 128.468ZM298.146 22.6709C286.072 22.6709 277.504 25.8253 271.964 32.3383C266.041 39.2599 263.034 50.0847 263.034 64.4724C263.034 78.8601 266.018 89.4126 271.919 96.2207C277.481 102.643 286.072 105.775 298.168 105.775C310.264 105.775 318.788 102.666 324.304 96.2434C330.16 89.4353 333.122 78.7467 333.122 64.4724C333.122 50.1982 330.137 39.2372 324.259 32.2929C318.765 25.8026 310.219 22.6482 298.168 22.6482L298.146 22.6709ZM298.146 103.914C284.49 103.914 277.481 97.3554 273.976 91.8635C269.884 85.4186 267.872 76.4546 267.872 64.4951C267.872 52.5356 269.816 43.322 273.796 36.8543C277.232 31.249 284.264 24.5771 298.123 24.5771C311.982 24.5771 318.833 31.249 322.292 36.8543C326.271 43.3447 328.216 52.3767 328.216 64.5178C328.216 76.6589 326.271 85.3732 322.247 91.7955C318.788 97.3327 311.801 103.937 298.123 103.937L298.146 103.914ZM298.146 47.2253C295.365 47.2253 293.646 47.7246 293.036 48.7458C292.267 49.9939 290.481 54.0334 290.481 64.4951C290.481 74.9568 292.267 78.4743 293.036 79.6771C293.285 80.0629 294.031 81.243 298.146 81.243C302.26 81.243 302.893 80.131 303.12 79.7679C303.888 78.5424 305.652 74.6164 305.652 64.4951C305.652 54.3738 303.866 50.0166 303.097 48.7458C302.871 48.3827 302.17 47.2253 298.146 47.2253Z" fill="#1A4A9A"/>
<path d="M396.292 128.468C377.526 128.468 362.966 122.636 352.995 111.108C343.432 100.056 338.593 84.3747 338.593 64.4951C338.593 44.6155 343.432 28.7527 352.95 17.5875C362.921 5.92302 377.503 0 396.292 0C415.08 0 429.663 5.92302 439.565 17.6102C449.016 28.7527 453.832 44.5248 453.832 64.4951C453.832 84.4654 449.016 100.033 439.52 111.085C429.595 122.613 415.057 128.468 396.292 128.468ZM396.292 22.6709C384.218 22.6709 375.65 25.8253 370.11 32.3383C364.187 39.2599 361.18 50.0847 361.18 64.4724C361.18 78.8601 364.164 89.4126 370.065 96.2207C375.627 102.643 384.218 105.775 396.314 105.775C408.41 105.775 416.934 102.666 422.45 96.2434C428.306 89.4353 431.268 78.7467 431.268 64.4724C431.268 50.1982 428.283 39.2372 422.405 32.2929C416.911 25.8026 408.365 22.6482 396.314 22.6482L396.292 22.6709ZM396.292 103.914C382.636 103.914 375.627 97.3554 372.122 91.8635C368.03 85.4186 366.018 76.4546 366.018 64.4951C366.018 52.5356 367.962 43.322 371.942 36.8543C375.378 31.249 382.41 24.5771 396.269 24.5771C410.128 24.5771 416.979 31.249 420.438 36.8543C424.417 43.3447 426.362 52.3767 426.362 64.5178C426.362 76.6589 424.417 85.3732 420.393 91.7955C416.934 97.3327 409.947 103.937 396.269 103.937L396.292 103.914ZM396.292 47.2253C393.511 47.2253 391.792 47.7246 391.182 48.7458C390.413 49.9939 388.627 54.0334 388.627 64.4951C388.627 74.9568 390.413 78.4743 391.182 79.6771C391.431 80.0629 392.177 81.243 396.292 81.243C400.406 81.243 401.039 80.131 401.266 79.7679C402.034 78.5424 403.798 74.6164 403.798 64.4951C403.798 54.3738 402.012 50.0166 401.243 48.7458C401.017 48.3827 400.316 47.2253 396.292 47.2253Z" fill="#1A4A9A"/>
<path d="M494.437 128.468C475.672 128.468 461.112 122.636 451.141 111.108C441.577 100.056 436.739 84.3747 436.739 64.4951C436.739 44.6155 441.577 28.7527 451.096 17.5875C461.066 5.92302 475.649 0 494.437 0C513.225 0 527.808 5.92302 537.711 17.6102C547.162 28.7527 551.977 44.5248 551.977 64.4951C551.977 84.4654 547.162 100.033 537.666 111.085C527.74 122.613 513.203 128.468 494.437 128.468ZM494.437 22.6709C482.364 22.6709 473.795 25.8253 468.256 32.3383C462.332 39.2599 459.325 50.0847 459.325 64.4724C459.325 78.8601 462.31 89.4126 468.211 96.2207C473.773 102.643 482.364 105.775 494.46 105.775C506.556 105.775 515.079 102.666 520.596 96.2434C526.452 89.4353 529.414 78.7467 529.414 64.4724C529.414 50.1982 526.429 39.2372 520.551 32.2929C515.057 25.8026 506.511 22.6482 494.46 22.6482L494.437 22.6709ZM494.437 103.914C480.804 103.914 473.773 97.3554 470.268 91.8635C466.176 85.3959 464.164 76.4546 464.164 64.4951C464.164 52.5356 466.108 43.322 470.087 36.8543C473.524 31.249 480.555 24.5771 494.415 24.5771C508.274 24.5771 515.125 31.249 518.584 36.8543C522.563 43.3447 524.507 52.3767 524.507 64.5178C524.507 76.6589 522.563 85.3732 518.539 91.7955C515.079 97.3327 508.093 103.937 494.415 103.937L494.437 103.914ZM494.437 47.2253C491.656 47.2253 489.938 47.7246 489.328 48.7458C488.559 49.9939 486.773 54.0334 486.773 64.4951C486.773 74.9568 488.559 78.4743 489.328 79.6771C489.576 80.0629 490.322 81.243 494.437 81.243C498.552 81.243 499.185 80.131 499.411 79.7679C500.18 78.5424 501.944 74.6164 501.944 64.4951C501.944 54.3738 500.157 50.0166 499.389 48.7458C499.163 48.3827 498.462 47.2253 494.437 47.2253Z" fill="#1A4A9A"/>
<path d="M92.7876 85.1236C92.7876 92.9982 90.0745 99.4432 84.6483 104.436C79.2222 109.451 71.5803 112.333 61.7228 113.127V122.409H44.6077V112.288C33.4162 110.495 22.8578 106.546 12.8872 100.487L21.3656 81.2657C34.8858 89.1403 46.439 93.0663 56.0931 93.0663C63.5089 93.0663 67.2168 90.7062 67.2168 85.9859C67.2168 83.6258 65.7698 81.7195 62.8984 80.2445C60.0271 78.7921 53.8096 76.5227 44.2912 73.5045C34.0945 70.3501 27.0179 66.5148 23.0387 61.9534C19.0595 57.392 17.0699 51.5144 17.0699 44.3205C17.0699 37.1267 19.4664 31.0448 24.3048 26.438C29.1205 21.8312 35.9032 19.1307 44.6529 18.3364V8.55548H61.768V19.0172C69.8394 20.0384 79.3126 22.5574 90.1649 26.5969L84.1735 45.3191C69.7716 40.2584 59.1001 37.7394 52.1139 37.7394C49.1295 37.7394 46.7782 38.3521 45.0599 39.6003C43.3416 40.8484 42.4825 42.4143 42.4825 44.3205C42.4825 46.6807 43.7486 48.5188 46.3034 49.8124C48.8582 51.1059 55.1661 53.2164 65.2498 56.1439C75.1073 59.0714 82.1613 62.7477 86.4345 67.1957C90.7076 71.6436 92.8328 77.6347 92.8328 85.169L92.7876 85.1236Z" fill="#FFE009"/>
<path d="M204.408 111.947H133.981V89.0042H157.065V38.7379C150.192 40.6442 142.663 42.0058 134.479 42.7774L129.324 26.7557C140.719 22.7163 151.752 16.8159 162.378 9.05473H183.631V89.0042H204.386V111.947H204.408Z" fill="#FFE009"/>
<path d="M219.353 134.709L213.203 126.948C219.195 122.114 223.106 117.212 225.005 112.265C221.795 111.357 219.24 109.587 217.363 106.955C215.487 104.322 214.537 101.259 214.537 97.7639C214.537 93.384 215.916 89.753 218.697 86.8937C221.456 84.0343 225.073 82.5819 229.504 82.5819C233.936 82.5819 237.553 84.1477 240.379 87.3021C243.206 90.4565 244.607 94.3825 244.607 99.1028C244.607 105.298 242.346 111.652 237.802 118.165C233.258 124.678 227.108 130.193 219.353 134.686V134.709Z" fill="#FFE009"/>
<path d="M261.541 21.0369C269.296 11.9368 280.872 7.37541 296.269 7.37541C311.666 7.37541 323.196 11.9368 330.906 21.0369C338.593 30.1371 342.459 43.3674 342.459 60.6826C342.459 77.9978 338.616 90.9785 330.906 99.9879C323.196 108.975 311.666 113.491 296.269 113.491C280.872 113.491 269.296 108.997 261.541 99.9879C253.787 91.0012 249.92 77.8843 249.92 60.6826C249.92 43.4809 253.787 30.1598 261.541 21.0369ZM281.641 82.0145C284.512 86.576 289.396 88.8453 296.269 88.8453C303.142 88.8453 307.98 86.576 310.807 82.0145C313.633 77.4531 315.034 70.3501 315.034 60.6826C315.034 51.0151 313.633 43.5263 310.807 38.9195C307.98 34.3127 303.142 31.9979 296.269 31.9979C289.396 31.9979 284.399 34.3127 281.573 38.9195C278.747 43.5263 277.345 50.7882 277.345 60.6826C277.345 70.577 278.792 77.4758 281.664 82.0145H281.641Z" fill="#FFE009"/>
<path d="M359.552 21.0369C367.307 11.9368 378.882 7.37541 394.279 7.37541C409.676 7.37541 421.207 11.9368 428.916 21.0369C436.603 30.1371 440.47 43.3674 440.47 60.6826C440.47 77.9978 436.626 90.9785 428.916 99.9879C421.207 108.975 409.676 113.491 394.279 113.491C378.882 113.491 367.307 108.997 359.552 99.9879C351.797 91.0012 347.931 77.8843 347.931 60.6826C347.931 43.4809 351.797 30.1598 359.552 21.0369ZM379.651 82.0145C382.523 86.576 387.406 88.8453 394.279 88.8453C401.152 88.8453 405.991 86.576 408.817 82.0145C411.643 77.4531 413.045 70.3501 413.045 60.6826C413.045 51.0151 411.643 43.5263 408.817 38.9195C405.991 34.3127 401.152 31.9979 394.279 31.9979C387.406 31.9979 382.409 34.3127 379.583 38.9195C376.757 43.5263 375.355 50.7882 375.355 60.6826C375.355 70.577 376.802 77.4758 379.674 82.0145H379.651Z" fill="#FFE009"/>
<path d="M457.562 21.0369C465.317 11.9368 476.893 7.37541 492.289 7.37541C507.686 7.37541 519.217 11.9368 526.927 21.0369C534.614 30.1371 538.48 43.3674 538.48 60.6826C538.48 77.9978 534.636 90.9785 526.927 99.9879C519.217 108.975 507.686 113.491 492.289 113.491C476.893 113.491 465.317 108.997 457.562 99.9879C449.807 91.0012 445.941 77.8843 445.941 60.6826C445.941 43.4809 449.807 30.1598 457.562 21.0369ZM477.661 82.0145C480.533 86.576 485.416 88.8453 492.289 88.8453C499.163 88.8453 504.001 86.576 506.827 82.0145C509.653 77.4531 511.055 70.3501 511.055 60.6826C511.055 51.0151 509.653 43.5263 506.827 38.9195C504.001 34.3127 499.163 31.9979 492.289 31.9979C485.416 31.9979 480.42 34.3127 477.594 38.9195C474.767 43.5263 473.366 50.7882 473.366 60.6826C473.366 70.577 474.813 77.4758 477.684 82.0145H477.661Z" fill="#FFE009"/>
</g>
<defs>
<clipPath id="clip0_358_13479">
<rect width="552" height="153" fill="white"/>
</clipPath>
</defs>
</svg>
